<svg xmlns="http://www.w3.org/2000/svg" viewBox="0 0 400 300" fill="none">
  <rect width="400" height="300" fill="#f0fdf4"/>
  <rect x="20" y="20" width="360" height="260" rx="24" fill="url(#grad)" opacity=".18"/>
  <defs>
    <linearGradient id="grad" x1="0" y1="0" x2="400" y2="300" gradientUnits="userSpaceOnUse">
      <stop offset="0%" stop-color="#22c55e"/>
      <stop offset="100%" stop-color="#16a34a"/>
    </linearGradient>
  </defs>
  <!-- Wrench icon centered -->
  <g transform="translate(200,150) scale(5.2)" fill="#16a34a">
    <path d="M10.9 2.1a1 1 0 0 0-1.4 1.4l1.8 1.8-2.1 2.1-1.8-1.8a1 1 0 0 0-1.4 1.4l1.8 1.8L2 14.6A2 2 0 1 0 4.8 17.4l5.8-5.8 1.8 1.8a1 1 0 0 0 1.4-1.4l-1.8-1.8 2.1-2.1 1.8 1.8a1 1 0 0 0 1.4-1.4l-1.8-1.8.7-.7a3.5 3.5 0 0 0-4.9-4.9l-.7.7-1.8-1.8z" opacity=".9"/>
  </g>
  <!-- Decorative circles -->
  <circle cx="340" cy="50" r="28" fill="#22c55e" opacity=".10"/>
  <circle cx="60" cy="250" r="20" fill="#16a34a" opacity=".08"/>
</svg>
